<?xml version="1.0" encoding="UTF-8" standalone="no"?>
<!-- Created with Inkscape (http://www.inkscape.org/) -->
<svg id="svg3443" xmlns:rdf="http://www.w3.org/1999/02/22-rdf-syntax-ns#" xmlns="http://www.w3.org/2000/svg" height="24.555" viewBox="0 0 33.936238 24.554529" width="33.936" version="1.1" xmlns:cc="http://creativecommons.org/ns#" xmlns:xlink="http://www.w3.org/1999/xlink" xmlns:dc="http://purl.org/dc/elements/1.1/">
 <metadata id="metadata3449">
  <rdf:RDF>
   <cc:Work rdf:about="">
    <dc:format>image/svg+xml</dc:format>
    <dc:type rdf:resource="http://purl.org/dc/dcmitype/StillImage"/>
    <dc:title/>
   </cc:Work>
  </rdf:RDF>
 </metadata>
 <defs id="defs3447">
  <linearGradient id="linearGradient9318">
   <stop id="stop9320" stop-color="#fff" offset="0"/>
   <stop id="stop9322" stop-color="#fff" stop-opacity="0" offset="1"/>
  </linearGradient>
  <filter id="filter6836" style="color-interpolation-filters:sRGB" height="1.1332" width="1.2295" y="-.066611" x="-.11474">
   <feGaussianBlur id="feGaussianBlur6838" stdDeviation="4.7040647"/>
  </filter>
  <filter id="filter6995" style="color-interpolation-filters:sRGB" height="1.0726" width="1.0714" y="-.036309" x="-.035696">
   <feGaussianBlur id="feGaussianBlur6997" stdDeviation="0.61880859"/>
  </filter>
  <filter id="filter7005" style="color-interpolation-filters:sRGB" height="1.2887" width="1.0262" y="-.14436" x="-.013088">
   <feGaussianBlur id="feGaussianBlur7007" stdDeviation="0.22658376"/>
  </filter>
  <filter id="filter7129" style="color-interpolation-filters:sRGB" height="1.0454" width="1.1744" y="-.022681" x="-.087213">
   <feGaussianBlur id="feGaussianBlur7131" stdDeviation="0.47961899"/>
  </filter>
  <filter id="filter7143" style="color-interpolation-filters:sRGB" height="1.0436" width="1.2056" y="-.021820" x="-.10281">
   <feGaussianBlur id="feGaussianBlur7145" stdDeviation="0.46146954"/>
  </filter>
  <filter id="filter7361" style="color-interpolation-filters:sRGB" height="1.0856" width="1.062" y="-.042791" x="-.031022">
   <feGaussianBlur id="feGaussianBlur7363" stdDeviation="0.41172082"/>
  </filter>
  <filter id="filter7436" style="color-interpolation-filters:sRGB" height="1.0351" width="1.074" y="-.017549" x="-.036983">
   <feGaussianBlur id="feGaussianBlur7438" stdDeviation="0.22454769"/>
  </filter>
  <linearGradient id="linearGradient7446" y2="-35.782" gradientUnits="userSpaceOnUse" x2="34.989" gradientTransform="translate(-37.331 -6.0838)" y1="-35.782" x1="-4.8762">
   <stop id="stop7442" offset="0"/>
   <stop id="stop7444" stop-opacity="0" offset="1"/>
  </linearGradient>
  <filter id="filter9073" style="color-interpolation-filters:sRGB" height="1.36" width="1.36" y="-0.18" x="-0.18">
   <feGaussianBlur id="feGaussianBlur9075" stdDeviation="0.05625"/>
  </filter>
  <filter id="filter9175" style="color-interpolation-filters:sRGB" height="1.672" width="1.672" y="-.336" x="-.336">
   <feGaussianBlur id="feGaussianBlur9177" stdDeviation="0.105"/>
  </filter>
  <linearGradient id="linearGradient9308" y2="11.645" gradientUnits="userSpaceOnUse" x2="14.404" gradientTransform="translate(52.134 -27.797)" y1="11.645" x1="9.571">
   <stop id="stop9304" stop-color="#fff" offset="0"/>
   <stop id="stop9306" stop-color="#fff" stop-opacity="0" offset="1"/>
  </linearGradient>
  <linearGradient id="linearGradient9316" y2="17.343" xlink:href="#linearGradient9318" gradientUnits="userSpaceOnUse" x2="18.105" gradientTransform="translate(57.416 -15.993)" y1="17.343" x1="13.272"/>
  <linearGradient id="linearGradient9324" y2="23.933" xlink:href="#linearGradient9318" gradientUnits="userSpaceOnUse" x2="-7.9738" gradientTransform="translate(82.37 -29.536)" y1="23.933" x1="-12.807"/>
  <linearGradient id="linearGradient9344" y2="17.343" xlink:href="#linearGradient9318" gradientUnits="userSpaceOnUse" x2="18.105" gradientTransform="translate(29.833 35.784)" y1="17.343" x1="13.272"/>
  <linearGradient id="linearGradient9348" y2="17.343" xlink:href="#linearGradient9318" gradientUnits="userSpaceOnUse" x2="18.105" gradientTransform="translate(30.707 32.247)" y1="17.343" x1="13.272"/>
  <filter id="filter9646" style="color-interpolation-filters:sRGB" height="1.0346" width="1.0184" y="-.017295" x="-.0091874">
   <feGaussianBlur id="feGaussianBlur9648" stdDeviation="0.048988858"/>
  </filter>
  <filter id="filter9728" style="color-interpolation-filters:sRGB" height="1.3652" width="1.3549" y="-.18261" x="-.17746">
   <feGaussianBlur id="feGaussianBlur9730" stdDeviation="0.11600971"/>
  </filter>
  <linearGradient id="linearGradient9759" y2="23.933" xlink:href="#linearGradient9318" gradientUnits="userSpaceOnUse" x2="-7.9738" gradientTransform="translate(80.576 -28.338)" y1="23.933" x1="-12.807"/>
  <linearGradient id="linearGradient9763" y2="23.933" xlink:href="#linearGradient9318" gradientUnits="userSpaceOnUse" x2="-7.9738" gradientTransform="translate(-55.596 9.9324)" y1="23.933" x1="-12.807"/>
  <linearGradient id="linearGradient9767" y2="23.933" xlink:href="#linearGradient9318" gradientUnits="userSpaceOnUse" x2="-7.9738" gradientTransform="translate(-33.798 33.957)" y1="23.933" x1="-12.807"/>
  <filter id="filter9958" style="color-interpolation-filters:sRGB" height="2.1482" width="1.0768" y="-.57411" x="-.038408">
   <feGaussianBlur id="feGaussianBlur9960" stdDeviation="0.2840625"/>
  </filter>
 </defs>
 <g id="g7421" filter="url(#filter7436)" fill="#808080" transform="matrix(1.1243 0 0 1.0893 -130.74 16.25)">
  <path id="path7411" d="m170.07-7.449h14.548l-0.75538 21.82-12.772-0.03951-1.0444-22.277" fill-rule="evenodd"/>
  <rect id="rect7413" opacity="0.557" transform="matrix(.90078 .43427 -.43427 .90078 0 0)" height="4.5942" width="4.5942" y="-80.409" x="154.33"/>
  <rect id="rect7415" opacity="0.557" transform="rotate(13.514)" height="4.5942" width="4.5942" y="-42.217" x="173.44"/>
  <rect id="rect7417" opacity="0.557" transform="rotate(-36.18)" height="4.5942" width="4.5942" y="106.61" x="134.87"/>
  <path id="path7419" d="m172.42-16.303s1.6482-0.07909 2.4666 0c0.8338 0.08059 1.7335 0.07587 2.4666 0.48128 0.38487 0.21285 0.70638 0.56885 0.90239 0.96256 0.26301 0.52827 0.27147 1.1552 0.3008 1.7446 0.042 0.84334-0.1246 1.6842-0.18048 2.5267-0.0651 0.98229-0.18048 2.9478-0.18048 2.9478l-1.7446 0.12032s0.48413-3.4819 0.48128-5.2339c-0.00069-0.42302 0.12815-0.92099-0.12032-1.2634-0.29541-0.40703-0.43095-0.61173-1.3837-0.6016-0.59419 0.0063-1.6042-0.04348-2.4064-0.06016-0.3014-0.0063-0.72192 0-0.72192 0z" fill-rule="evenodd"/>
 </g>
 <g id="g7332" filter="url(#filter7361)" fill="#4d4d4d" transform="matrix(1.0453 0 0 1.0573 -78.416 -15.436)">
  <g fill-rule="evenodd">
   <path id="path7310" d="m79.64 22.934s-0.47213 1.3971-0.51912 2.1247c-0.02989 0.46281 0.04579 0.93175 0.15364 1.3828 0.15265 0.63838 0.74809 1.1898 0.6914 1.8437-0.04362 0.50317-0.60878 0.82675-0.76823 1.306-0.21962 0.66008-0.37349 1.3934-0.23047 2.0742 0.11558 0.55019 0.69922 0.91667 0.84505 1.4596 0.09964 0.37096 0 1.1523 0 1.1523l-1.6901-0.03841h-1.2676l-1.0371 0.03841s-0.14046 0.92557-0.07682 1.3828c0.10828 0.77803 0.17545 1.7124 0.76822 2.2279 0.80722 0.7019 3.1497 0.61458 3.1497 0.61458l26.196-0.30729s0.74179-0.65917 0.9987-1.0755c0.27908-0.45228 0.43653-0.97617 0.55769-1.4936 0.12278-0.5244 0.16553-1.6072 0.16553-1.6072l-1.3114-0.02636-1.5985-0.01864s-0.0307-0.67481 0.0357-1.0026c0.1142-0.56401 0.56407-1.04 0.61458-1.6133 0.048-0.54531-0.0686-1.1206-0.30729-1.6133-0.22162-0.45744-0.98313-0.64428-0.99869-1.1523-0.0168-0.54777 0.82296-0.7869 0.99869-1.306 0.22991-0.67915 0.016-1.4342 0-2.151-0.0178-0.79936-0.10705-2.3963-0.10705-2.3963l-24.177 0.18161z"/>
   <path id="path7312" d="m82.076 20.964c-0.70815 0.01317-1.4579-0.09243-2.1185 0.16296-0.57769 0.22334-1.1237 0.62502-1.4667 1.1408-0.3843 0.57789-0.63585 1.3221-0.54322 2.0099 0.09534 0.70787 0.56086 1.3633 1.0864 1.8469 0.39927 0.36744 0.92931 0.63101 1.4667 0.70618 0.52772 0.07383 1.0959-0.03898 1.5753-0.27161 0.21917-0.10635 0.30682-0.43006 0.54322-0.4889 0.36224-0.09015 0.7147 0.23758 1.0864 0.27161 0.28907 0.02646 0.64488-0.23863 0.86915-0.05432 0.21169 0.17398 0.01817 0.55618 0.10864 0.81483 0.13944 0.39865 0.3256 0.81827 0.65186 1.0864 0.37168 0.3055 0.87692 0.4889 1.358 0.4889 0.48112 0 0.98539-0.18458 1.358-0.4889 0.37764-0.30838 0.58325-0.79521 0.7605-1.2494 0.1007-0.25803-0.09294-0.70883 0.16296-0.81483 0.42222-0.17489 0.68735 0.70323 1.1408 0.7605 0.38066 0.04809 0.79466-0.1311 1.0864-0.38025 0.20331-0.17361 0.11495-0.67312 0.38025-0.70618 0.2925-0.03646 0.34307 0.50309 0.59754 0.65186 0.48155 0.28153 1.0865 0.50734 1.6297 0.38025 0.38828-0.09085 0.5342-0.84703 0.92347-0.7605 0.41113 0.09139 0.28786 0.80584 0.54322 1.1408 0.31914 0.41857 0.69895 0.8563 1.1951 1.0321 0.54642 0.19363 1.1943 0.14609 1.7383-0.05432 0.54397-0.20041 1.0223-0.61384 1.358-1.0864 0.18905-0.26612 0.28691-0.59938 0.32593-0.92347 0.02175-0.18067-0.20134-0.43598-0.05432-0.54322 0.3669-0.26761 0.7976 0.49729 1.2494 0.54322 0.34977 0.03556 0.71819-0.05898 1.0321-0.21729 0.19468-0.09818 0.28007-0.49729 0.48889-0.43457 0.26922 0.08086 0.0698 0.57553 0.21729 0.81483 0.11441 0.18561 0.27785 0.37979 0.4889 0.43457 0.48475 0.12584 1.039-0.06528 1.4667-0.32593 0.6038-0.36801 1.1173-0.96478 1.358-1.6297 0.16027-0.44267 0.10817-0.95417 0-1.4124-0.16744-0.70931-0.38655-1.5294-0.97779-1.9556-0.72708-0.52405-1.7669-0.33026-2.6618-0.38025-1.7906-0.10002-3.5845 0.1409-5.3779 0.16296-3.1867 0.03922-6.3745 0.0178-9.5606-0.05432-1.8298-0.04142-3.6565-0.25132-5.4865-0.21729z"/>
   <path id="path7314" d="m79.889 34.277 24.971-0.154"/>
  </g>
  <ellipse id="ellipse7316" rx="1.749" ry="1.6722" cy="19.335" cx="83.615"/>
  <ellipse id="ellipse7318" rx="1.749" ry="1.6722" cy="19.604" cx="88.839"/>
  <ellipse id="ellipse7320" rx="1.749" ry="1.6722" cy="19.681" cx="94.87"/>
  <ellipse id="ellipse7322" rx="1.749" ry="1.6722" cy="19.45" cx="100.86"/>
  <g fill-rule="evenodd">
   <path id="path7324" d="m83.76 17.624s0.06059-0.68297 0.21729-0.97779c0.11121-0.20924 0.28558-0.39436 0.4889-0.51606 0.26572-0.15904 0.89631-0.24445 0.89631-0.24445"/>
   <path id="path7326" d="m88.649 17.95s0.27243-0.4743 0.35309-0.73334c0.08718-0.27997 0.1688-0.57778 0.1358-0.86915-0.03291-0.29067-0.09509-0.63514-0.32593-0.81483-0.21623-0.16831-0.81483-0.10864-0.81483-0.10864"/>
   <path id="path7328" d="m94.841 18.113s-0.26594-0.64252-0.24445-0.97779c0.0143-0.22315 0.12598-0.43505 0.24445-0.6247 0.16294-0.26084 0.33104-0.58761 0.6247-0.67902 0.19503-0.06071 0.43212 0.01597 0.59754 0.1358 0.17101 0.12388 0.32593 0.54322 0.32593 0.54322"/>
   <path id="path7330" d="m101.31 17.895s0.22346-0.47653 0.24445-0.73334c0.0187-0.22846-0.0404-0.4602-0.10865-0.67902-0.0687-0.22035-0.14753-0.45032-0.29876-0.6247-0.10694-0.1233-0.25266-0.21974-0.40742-0.27161-0.14618-0.04899-0.46173-0.02716-0.46173-0.02716"/>
  </g>
 </g>
 <path id="path7133" d="m23.291 2.4731s-0.49877 5.6792-0.72438 8.5207c-0.25083 3.1594-0.42735 6.3247-0.69952 9.4823-0.22497 2.6109-0.53209 5.2141-0.77174 7.8237-0.2331 2.5388-0.4409 5.0799-0.64789 7.621-0.2025 2.4882-0.37879 4.9785-0.58149 7.4667-0.164 2.0117-0.70649 4.0242-0.51292 6.0333 0.0672 0.69718 0.20969 1.4232 0.57447 2.0212 0.38738 0.63497 0.95369 1.2138 1.6295 1.5245 0.64364 0.29594 1.4062 0.28838 2.1124 0.23289 0.56399-0.04431 1.1531-0.15442 1.6372-0.44718 0.71219-0.43072 1.3327-1.0814 1.7012-1.8277 0.28324-0.57345 0.30378-1.2524 0.32075-1.8918 0.0402-1.5168-0.3481-3.0147-0.52176-4.5221-0.20466-1.7764-0.41993-3.5517-0.61305-5.3294-0.17511-1.6121-0.30674-3.2289-0.49477-4.8396-0.0672-0.57604-0.26694-1.1465-0.22648-1.7251 0.0204-0.28748 0.0752-0.59066 0.23075-0.83328 0.14867-0.23185 0.39755-0.38757 0.63165-0.53267 0.2222-0.13772 0.48131-0.2043 0.71951-0.31198 0.35419-0.16011 0.75969-0.24397 1.055-0.49667 0.38546-0.3298 0.68421-0.78185 0.85341-1.2601 0.27755-0.78448 0.14098-1.6583 0.21146-2.4874 0.10499-1.2349 0.20997-2.4698 0.31495-3.7047 0.13348-1.5701 0.28181-3.1389 0.40044-4.7102 0.0705-0.93587 0.1671-1.8711 0.18555-2.8095 0.0211-1.1045 0.0121-2.213-0.0915-3.3128-0.089-0.94481-0.22836-1.8888-0.45405-2.8105-0.1924-0.78581-0.43996-1.5623-0.76366-2.3038-0.35758-0.81905-0.74829-1.6402-1.2929-2.3488-0.42965-0.55906-0.94616-1.0645-1.5282-1.4626-0.46695-0.31937-1.5382-0.71714-1.5382-0.71714z" fill-rule="evenodd" transform="matrix(.69632 0 0 .69632 -37.051 -5.8972)" filter="url(#filter7143)" fill="#999"/>
 <path id="path7111" d="m4.2355 2.4978-1.4281 0.055898s-0.01694 14.168 0.36903 21.238c0.04095 0.75004-0.04682 1.5368 0.20636 2.244 0.27952 0.78077 0.86324 1.4238 1.3963 2.0591 0.59351 0.70736 1.3383 1.273 1.9878 1.9293 0.42634 0.43083 0.95577 0.7896 1.2527 1.318 0.28634 0.50959 0.38433 1.1129 0.45741 1.6929 0.17943 1.4238-0.02056 2.8702-0.05671 4.3049-0.03434 1.363-0.09449 2.7252-0.15214 4.0873-0.05345 1.263-0.12202 2.5253-0.17966 3.7881-0.05069 1.1107-0.19589 2.2217-0.14613 3.3325 0.02692 0.60084-0.01523 1.2437 0.2399 1.7883 0.2804 0.59862 0.80309 1.0769 1.3412 1.4607 0.46529 0.33187 1.0074 0.59433 1.5717 0.68522 0.54383 0.08761 1.1149-0.0038 1.6456-0.15133 0.61835-0.17186 1.2396-0.4282 1.7333-0.83829 0.46385-0.38531 0.84651-0.89759 1.073-1.4565 0.25093-0.6192 0.30934-1.3191 0.26995-1.9861-0.0643-1.0889-0.55655-2.1095-0.81938-3.1682-0.93851-3.7803-2.0742-7.5242-2.7049-11.368-0.0973-0.59299-0.25802-1.2015-0.16509-1.7952 0.11434-0.73048 0.48938-1.4062 0.86835-2.0411 0.4629-0.77547 1.1884-1.3665 1.6912-2.1168 0.37114-0.55384 0.7191-1.1314 0.97065-1.7488 0.16143-0.39623 0.30773-0.81134 0.33875-1.2381 0.0599-0.82447-0.18129-1.6437-0.30179-2.4615-0.9263-6.2866-2.2654-12.507-3.2363-18.787-0.0802-0.51871-0.21378-1.56-0.21378-1.56l-1.5892 0.11948s0.13847 1.7474 0.21432 2.6206c0.0828 0.95247 0.16774 1.9048 0.26266 2.8561 0.28471 2.8544 0.68279 5.006 0.92019 8.5562l-1.6396 0.15078s-0.12748-0.84836-0.19575-1.2718c-0.12166-0.75468-0.26259-1.5062-0.3811-2.2614-0.0382-0.24308-0.0708-0.48699-0.10619-0.73048-0.1626-1.115-0.3197-2.2317-0.4881-3.3468-0.1742-1.1538-0.3701-2.3043-0.5404-3.4587-0.1397-0.9469-0.3949-2.844-0.3949-2.844l-1.6023 0.10592s0.17341 2.2699 0.24511 3.4059c0.08929 1.4146 0.15955 2.8303 0.23045 4.2459 0.04832 0.96472 0.08445 1.93 0.13286 2.8947 0.05949 1.1856 0.19366 3.5559 0.19366 3.5559l-1.6974 0.10276s-0.2772-2.4103-0.41252-3.6158c-0.2164-1.926-0.4433-3.8519-0.6385-5.781-0.0669-0.6606-0.1186-1.3226-0.1824-1.9835-0.0831-0.8596-0.2608-2.5777-0.2608-2.5777z" fill-rule="evenodd" transform="matrix(.69632 0 0 .69632 -37.051 -5.8972)" filter="url(#filter7129)" fill="#999"/>
 <path id="path6255" d="m-35.327-62.107a21.702 12.946 66.573 0 0 -2.3067 1.1735 21.702 12.946 66.573 0 0 -0.42133 26.84 21.702 12.946 66.573 0 0 11.065 11.533 12.946 21.702 23.744 0 0 2.821 1.1635 12.946 21.702 23.744 0 0 4.3473 -0.26585 21.702 12.946 66.573 0 0 0.32206 -0.09104 12.946 21.702 23.744 0 0 15.302 -17.58 12.946 21.702 23.744 0 0 -5.8925 -22.844 12.946 21.702 23.744 0 0 -12.121 5.1184 21.702 12.946 66.573 0 0 -13.116 -5.0481z" stroke="url(#linearGradient7446)" stroke-width=".12088" fill="#d40000"/>
 <g id="g6840" transform="matrix(.17268 0 0 .17268 -42.207 -62.533)">
  <path id="path6803" d="m207.17 56.258a64.73 106.84 24.817 0 1 -3.1041 82.903 64.73 106.84 24.817 0 1 -70.015 83.751 54.332 91.078 23.744 0 0 7.0944 2.2591 54.332 91.078 23.744 0 0 18.244 -1.1168 91.078 54.332 66.573 0 0 1.3518 -0.38218 54.332 91.078 23.744 0 0 64.22 -73.78 54.332 91.078 23.744 0 0 -17.791 -93.634z" transform="matrix(1.0641 0 0 1.0913 -25.739 -36.631)" filter="url(#filter6836)" stroke-width="8.4" fill="#f55"/>
 </g>
 <rect id="rect6999" transform="matrix(1.0154 0 0 1.0325 -39.978 -65.678)" height="3.7669" filter="url(#filter7005)" width="41.55" y="101.91" x="-84.529" fill="#999"/>
 <path id="path6981" d="m-103.88-3.1776l-5.4182 5.6088c-1.5559 1.6106-3.1118 3.2212-4.6676 4.8319l-4.7443 4.9112c-1.7558 1.8176-5.2675 5.4528-5.2675 5.4528h4.2482 5.9764v5.5472 5.3422 4.7486 4.4597h21.156v-5.7953-7.5681-6.7343h5.3657 4.8589s-2.7339-2.6445-4.1008-3.9668c-1.6334-1.58-3.2669-3.1601-4.9004-4.7401l-6.636-6.4191-5.8706-5.6787z" filter="url(#filter6995)" fill="#999"/>
 <g fill="#333">
  <path id="rect6946" d="m-105.43-3.6228l-5.4182 5.6088c-1.5559 1.6106-3.1118 3.2212-4.6677 4.8319l-4.7443 4.9112c-1.7558 1.8176-5.2675 5.4528-5.2675 5.4528h4.2482 5.9764v5.5472 5.3422 4.7486 4.4597h21.156v-5.7953-7.5681-6.7343h5.3657 4.8589s-2.7339-2.6445-4.1008-3.9668c-1.6334-1.58-3.2669-3.1601-4.9004-4.7401l-6.636-6.4191-5.8706-5.6787z" stroke="#333" stroke-width="0.7"/>
  <rect id="rect6959" height="3.1733" width="41.253" stroke="#333" y="39.175" x="-125.53" stroke-width="0.7"/>
  <path id="path7103" d="m-35.066-4.1579-0.9944 0.038923s-0.0118 9.8655 0.25696 14.788c0.02851 0.52227-0.0326 1.0701 0.1437 1.5625 0.19464 0.54367 0.60109 0.99144 0.97226 1.4338 0.41327 0.49255 0.93189 0.88639 1.3841 1.3434 0.29687 0.29999 0.66552 0.54982 0.87227 0.91776 0.19939 0.35484 0.26761 0.77496 0.3185 1.1788 0.12494 0.99143-0.01432 1.9986-0.03949 2.9976-0.02391 0.94905-0.0658 1.8976-0.10594 2.8461-0.03722 0.87945-0.08497 1.7584-0.1251 2.6378-0.0353 0.77342-0.1364 1.547-0.10176 2.3205 0.01874 0.41838-0.01061 0.86598 0.16704 1.2452 0.19525 0.41683 0.5592 0.74985 0.93394 1.0171 0.32399 0.23109 0.70149 0.41384 1.0944 0.47713 0.37868 0.061 0.7763-0.0026 1.1459-0.10538 0.43057-0.11967 0.86316-0.29817 1.2069-0.58372 0.32299-0.2683 0.58944-0.62501 0.74714-1.0142 0.17473-0.43116 0.2154-0.91853 0.18797-1.3829-0.04477-0.75824-0.38754-1.4689-0.57055-2.2061-0.6535-2.6323-1.4443-5.2392-1.8835-7.9156-0.06775-0.41291-0.17966-0.83663-0.11496-1.25 0.07962-0.50865 0.34076-0.97918 0.60465-1.4213 0.32233-0.53997 0.82749-0.95154 1.1776-1.4739 0.25843-0.38565 0.50072-0.78778 0.67588-1.2177 0.11241-0.2759 0.21428-0.56495 0.23588-0.86209 0.04171-0.5741-0.12624-1.1445-0.21014-1.714-0.645-4.3775-1.5775-8.7088-2.2535-13.082-0.05584-0.36119-0.14886-1.0863-0.14886-1.0863l-1.1066 0.083193s0.09642 1.2168 0.14924 1.8247c0.05763 0.66322 0.1168 1.3263 0.18289 1.9888 0.19826 1.9875 0.47544 3.4858 0.64075 5.9579l-1.1417 0.105s-0.08877-0.59073-0.13631-0.8856c-0.08471-0.5255-0.18285-1.0488-0.26536-1.5746-0.02656-0.16926-0.04926-0.3391-0.07394-0.50865-0.11312-0.77711-0.22253-1.5548-0.33978-2.3313-0.12132-0.80343-0.25774-1.6046-0.37634-2.4084-0.09728-0.6593-0.27497-1.9803-0.27497-1.9803l-1.1157 0.073754s0.12075 1.5806 0.17068 2.3716c0.06217 0.98499 0.1111 1.9708 0.16047 2.9565 0.03365 0.67175 0.0588 1.3439 0.09251 2.0157 0.04142 0.82553 0.13485 2.476 0.13485 2.476l-1.1819 0.07156s-0.19302-1.6783-0.28725-2.5177c-0.15061-1.3417-0.30861-2.6827-0.44453-4.026-0.04657-0.45996-0.08259-0.92093-0.12701-1.3811-0.05784-0.59857-0.18164-1.7949-0.18164-1.7949z" fill-rule="evenodd" stroke="#000" stroke-width=".69632px"/>
  <path id="path7105" d="m-21.903-4.817s-0.3473 3.9545-0.5044 5.9331c-0.17466 2.2-0.29757 4.404-0.48709 6.6027-0.15665 1.818-0.3705 3.6307-0.53738 5.4478-0.16231 1.7678-0.30701 3.5372-0.45114 5.3067-0.141 1.7326-0.26376 3.4666-0.4049 5.1992-0.1142 1.4008-0.49194 2.8022-0.35716 4.2011 0.04679 0.48546 0.14601 0.99104 0.40002 1.4074 0.26974 0.44214 0.66407 0.84517 1.1347 1.0615 0.44818 0.20607 0.97916 0.20081 1.4709 0.16217 0.39272-0.03085 0.80295-0.10753 1.14-0.31138 0.49591-0.29992 0.92796-0.75303 1.1846-1.2727 0.19723-0.3993 0.21153-0.87207 0.22334-1.3173 0.02799-1.0562-0.24239-2.0992-0.36331-3.1488-0.14251-1.237-0.2924-2.4731-0.42688-3.711-0.12193-1.1226-0.21359-2.2484-0.34452-3.3699-0.04679-0.40111-0.18588-0.79834-0.1577-1.2012 0.01421-0.20018 0.05236-0.41129 0.16068-0.58023 0.10352-0.16144 0.27682-0.26987 0.43983-0.37091 0.15472-0.09589 0.33514-0.14226 0.50101-0.21724 0.24663-0.11149 0.52899-0.16988 0.73464-0.34584 0.2684-0.22965 0.45878-0.5512 0.59425-0.87743 0.22553-0.54317 0.25564-1.1495 0.33637-1.732 0.12018-0.86725 0.17063-1.7433 0.21931-2.6174 0.06009-1.0794 0.03913-2.1621 0.08971-3.242 0.03057-0.6528 0.11636-1.3029 0.1292-1.9563 0.01469-0.76907 0.0084-1.5409-0.06371-2.3067-0.06198-0.65789-0.15902-1.3152-0.31617-1.957-0.13397-0.54717-0.30635-1.0879-0.53175-1.6042-0.24899-0.57032-0.52105-1.1421-0.90026-1.6355-0.29917-0.38928-0.65883-0.74125-1.0641-1.0184-0.32515-0.22238-1.0711-0.49936-1.0711-0.49936z" fill-rule="evenodd" stroke="#000" stroke-width=".69632px"/>
 </g>
 <g stroke="#000" stroke-width="1px">
  <path id="path7284" d="m5.0632 8.0202s-0.47213 1.3971-0.51912 2.1247c-0.02989 0.46281 0.04579 0.93175 0.15364 1.3828 0.15265 0.63838 0.74809 1.1898 0.6914 1.8437-0.04362 0.50317-0.60878 0.82675-0.76823 1.306-0.21962 0.66008-0.37349 1.3934-0.23047 2.0742 0.11558 0.55019 0.69922 0.91667 0.84505 1.4596 0.09964 0.37096 0 1.1523 0 1.1523l-1.6901-0.03841h-1.2676l-1.0371 0.03841s-0.14046 0.92557-0.07682 1.3828c0.10828 0.77803 0.17545 1.7124 0.76822 2.2279 0.80722 0.7019 3.1497 0.61458 3.1497 0.61458l26.196-0.30729s0.74179-0.65917 0.9987-1.0755c0.27908-0.45228 0.43654-0.97617 0.55769-1.4936 0.12278-0.5244 0.16553-1.6072 0.16553-1.6072l-1.3114-0.02636-1.5985-0.01864s-0.03068-0.67481 0.03568-1.0026c0.1142-0.56401 0.56408-1.04 0.61458-1.6133 0.04805-0.54531-0.06861-1.1206-0.30729-1.6133-0.22162-0.45744-0.98313-0.64428-0.99869-1.1523-0.01678-0.54777 0.82296-0.7869 0.99869-1.306 0.22991-0.67915 0.016-1.4342 0-2.151-0.018-0.7997-0.107-2.3966-0.107-2.3966l-24.176 0.1816z" fill-rule="evenodd" fill="#deaa87"/>
  <path id="path7280" d="m7.4989 6.0511c-0.70815 0.01317-1.4579-0.09243-2.1185 0.16296-0.57769 0.22334-1.1237 0.62502-1.4667 1.1408-0.3843 0.57789-0.63585 1.3221-0.54322 2.0099 0.09534 0.70787 0.56086 1.3633 1.0864 1.8469 0.39927 0.36744 0.92931 0.63101 1.4667 0.70618 0.52772 0.07383 1.0959-0.03898 1.5753-0.27161 0.21917-0.10635 0.30682-0.43006 0.54322-0.4889 0.36224-0.09015 0.7147 0.23758 1.0864 0.27161 0.28907 0.02646 0.64488-0.23863 0.86915-0.05432 0.21169 0.17398 0.01817 0.55618 0.10864 0.81483 0.13944 0.39865 0.3256 0.81827 0.65186 1.0864 0.37168 0.3055 0.87692 0.4889 1.358 0.4889 0.48112 0 0.98539-0.18458 1.358-0.4889 0.37764-0.30838 0.58325-0.79521 0.7605-1.2494 0.1007-0.25803-0.09294-0.70883 0.16296-0.81483 0.42222-0.17489 0.68735 0.70323 1.1408 0.7605 0.38066 0.04809 0.79466-0.1311 1.0864-0.38025 0.20331-0.17361 0.11495-0.67312 0.38025-0.70618 0.2925-0.03646 0.34307 0.50309 0.59754 0.65186 0.48155 0.28153 1.0865 0.50734 1.6297 0.38025 0.38828-0.09085 0.5342-0.84703 0.92347-0.7605 0.41113 0.09139 0.28786 0.80584 0.54322 1.1408 0.31914 0.41857 0.69895 0.8563 1.1951 1.0321 0.54642 0.19363 1.1943 0.14609 1.7383-0.05432 0.54397-0.20041 1.0223-0.61384 1.358-1.0864 0.18905-0.26612 0.28691-0.59938 0.32593-0.92347 0.02175-0.18067-0.20134-0.43598-0.05432-0.54322 0.3669-0.26761 0.7976 0.49729 1.2494 0.54322 0.34978 0.03556 0.71819-0.05898 1.0321-0.21729 0.19469-0.09818 0.28007-0.49729 0.4889-0.43457 0.26922 0.08086 0.06979 0.57553 0.21729 0.81483 0.11441 0.18561 0.27785 0.37979 0.4889 0.43457 0.48475 0.12584 1.039-0.06528 1.4667-0.32593 0.6038-0.36801 1.1173-0.96478 1.358-1.6297 0.16027-0.44267 0.10816-0.95417 0-1.4124-0.16744-0.70931-0.38656-1.5294-0.97779-1.9556-0.72708-0.52405-1.7669-0.33026-2.6618-0.38025-1.7906-0.10002-3.5845 0.1409-5.3779 0.16296-3.1867 0.03922-6.3745 0.0178-9.5606-0.05432-1.828-0.0414-3.6551-0.2513-5.4851-0.2173z" fill-rule="evenodd" fill="#a05a2c"/>
  <path id="path7290" d="m5.3123 19.364 24.968-0.154" fill="none"/>
 </g>
 <g stroke="#000" stroke-width=".73581" fill="#a00">
  <ellipse id="path7294" rx="1.749" ry="1.6722" cy="4.4216" cx="9.0382"/>
  <ellipse id="ellipse7296" rx="1.749" ry="1.6722" cy="4.6904" cx="14.262"/>
  <ellipse id="ellipse7298" rx="1.749" ry="1.6722" cy="4.7673" cx="20.293"/>
  <ellipse id="ellipse7300" rx="1.749" ry="1.6722" cy="4.5368" cx="26.285"/>
 </g>
 <g stroke="#000" stroke-width="1px" fill="none">
  <path id="path7302" d="m9.1829 2.7103s0.06059-0.68297 0.21729-0.97779c0.11121-0.20924 0.28558-0.39436 0.4889-0.51606 0.26572-0.15904 0.89631-0.24445 0.89631-0.24445"/>
  <path id="path7304" d="m14.072 3.0362s0.27243-0.4743 0.35309-0.73334c0.08718-0.27997 0.1688-0.57778 0.1358-0.86915-0.03291-0.29067-0.09509-0.63514-0.32593-0.81483-0.21623-0.16831-0.81483-0.10864-0.81483-0.10864"/>
  <path id="path7306" d="m20.265 3.1992s-0.26594-0.64252-0.24445-0.97779c0.0143-0.22315 0.12598-0.43505 0.24445-0.6247 0.16294-0.26084 0.33104-0.58761 0.6247-0.67902 0.19503-0.06071 0.43212 0.01597 0.59754 0.1358 0.17101 0.12388 0.32593 0.54322 0.32593 0.54322"/>
  <path id="path7308" d="m26.729 2.9819s0.22346-0.47653 0.24445-0.73334c0.01867-0.22846-0.04038-0.4602-0.10864-0.67902-0.06874-0.22035-0.14753-0.45032-0.29877-0.6247-0.10694-0.1233-0.25266-0.21974-0.40741-0.27161-0.14619-0.04899-0.46174-0.02716-0.46174-0.02716"/>
 </g>
 <g>
  <path id="path7399" d="m60.114 8.191h15.305l-0.79468 22.955-13.437-0.04157-1.0987-23.436" fill-rule="evenodd" stroke="#000" stroke-width="1.052px" fill="#ffb380"/>
  <rect id="rect7401" transform="matrix(.90078 .43427 -.43427 .90078 0 0)" height="4.8333" width="4.8333" y="-18.569" x="61.705" stroke-width="0" fill="url(#linearGradient9308)"/>
  <rect id="rect7405" transform="rotate(23.718)" height="4.8333" width="4.8333" y="-8.0201" x="69.563" stroke-width="0" fill="url(#linearGradient9324)"/>
  <path id="path7409" d="m62.581-1.124s1.7339-0.08321 2.5949 0c0.87719 0.08478 1.8237 0.07982 2.5949 0.50632 0.4049 0.22392 0.74314 0.59845 0.94934 1.0126 0.2767 0.55576 0.2856 1.2153 0.31646 1.8354 0.0442 0.88722-0.13109 1.7718-0.18987 2.6582-0.0685 1.0334-0.18988 3.1012-0.18988 3.1012l-1.8354 0.12658s0.50932-3.6631 0.50632-5.5062c-0.00073-0.44503 0.13482-0.96892-0.12658-1.3291-0.31078-0.42821-0.45337-0.64356-1.4557-0.6329-0.62511 0.0066-1.6876-0.04574-2.5316-0.06329-0.31709-0.0066-0.75949 0-0.75949 0z" fill-rule="evenodd" stroke="#000" stroke-width="1.052px" fill="#aff"/>
 </g>
 <g fill="#e6e6e6">
  <path id="path8983" d="m0.68847 18.678 32.625-0.187s0.22102 1.6403 0.0625 2.4375c-0.12006 0.60373-0.42232 1.1664-0.75 1.6875-0.29111 0.46293-1.0625 1.25-1.0625 1.25l-29.375 0.1875s-1.0879-0.97611-1.375-1.625c-0.32307-0.73021-0.31438-1.5765-0.3125-2.375 0.0011-0.46257 0.1875-1.375 0.1875-1.375z" fill-rule="evenodd" stroke="#000" stroke-width="1px"/>
  <circle id="circle8999" filter="url(#filter9073)" cy="16.428" cx="7.876" r=".375"/>
  <circle id="circle9077" cx="7.1885" filter="url(#filter9073)" cy="14.491" r=".375"/>
  <circle id="circle9079" filter="url(#filter9073)" cy="14.553" cx="9.4385" r=".375"/>
  <circle id="circle9081" cx="10.313" filter="url(#filter9073)" cy="16.553" r=".375"/>
  <circle id="circle9083" filter="url(#filter9073)" cy="15.178" cx="11.938" r=".375"/>
  <circle id="circle9085" cx="13.188" filter="url(#filter9073)" cy="16.866" r=".375"/>
  <circle id="circle9087" filter="url(#filter9073)" cy="14.741" cx="14.501" r=".375"/>
  <circle id="circle9089" cx="16.688" filter="url(#filter9073)" cy="13.491" r=".375"/>
  <circle id="circle9091" filter="url(#filter9073)" cy="15.991" cx="16.063" r=".375"/>
  <circle id="circle9093" cx="18.376" filter="url(#filter9073)" cy="16.928" r=".375"/>
  <circle id="circle9095" filter="url(#filter9073)" cy="14.928" cx="18.313" r=".375"/>
  <circle id="circle9097" cx="19.876" filter="url(#filter9073)" cy="13.491" r=".375"/>
  <circle id="circle9099" filter="url(#filter9073)" cy="15.553" cx="20.626" r=".375"/>
  <circle id="circle9101" cx="22.438" filter="url(#filter9073)" cy="16.928" r=".375"/>
  <circle id="circle9103" filter="url(#filter9073)" cy="15.116" cx="23.376" r=".375"/>
  <circle id="circle9105" cx="25.313" filter="url(#filter9073)" cy="16.991" r=".375"/>
  <circle id="circle9107" filter="url(#filter9073)" cy="14.866" cx="25.876" r=".375"/>
  <circle id="circle9109" cx="27.063" filter="url(#filter9073)" cy="13.116" r=".375"/>
  <circle id="circle9111" filter="url(#filter9073)" cy="15.303" cx="28.251" r=".375"/>
  <circle id="circle9113" cx="27.626" filter="url(#filter9073)" cy="16.741" r=".375"/>
  <circle id="circle9115" filter="url(#filter9073)" cy="12.616" cx="8.1885" r=".375"/>
 </g>
 <g fill="#ff8080">
  <circle id="circle9117" cx="-49.812" transform="matrix(.95929 0 0 1.3306 57.551 -4.0334)" filter="url(#filter9175)" cy="6.2184" r=".375"/>
  <circle id="circle9179" transform="matrix(.95929 0 0 1.3306 62.77 -3.8771)" filter="url(#filter9175)" cy="6.2184" cx="-49.812" r=".375"/>
  <circle id="circle9181" cx="-49.812" transform="matrix(.95929 0 0 1.3306 68.833 -3.8146)" filter="url(#filter9175)" cy="6.2184" r=".375"/>
  <circle id="circle9183" transform="matrix(.95929 0 0 1.3306 74.739 -4.0646)" filter="url(#filter9175)" cy="6.2184" cx="-49.812" r=".375"/>
 </g>
 <ellipse id="path9372" rx="7.4246" ry="6.1872" cy="32.933" cx="44.626" fill="none"/>
 <g id="g9732" transform="matrix(.35909 -.54683 .54683 .35909 59.27 -2.7056)">
  <path id="path9652" d="m-13.632 31.495a6.4908 7.9109 0.19895 0 0 6.2859 -6.7965l-12.797 0.33818a6.4908 7.9109 0.19895 0 0 6.5114 6.4583z" transform="matrix(.97009 0 0 .91431 -.47679 2.1978)" filter="url(#filter9646)" fill="#ffe62a"/>
  <path id="path9374" d="m-13.632 31.495a6.4908 7.9109 0.19895 0 0 6.2859 -6.7965l-12.797 0.33818a6.4908 7.9109 0.19895 0 0 6.5114 6.4583z" transform="matrix(.84920 0 0 .84920 -2.061 3.8616)" filter="url(#filter9646)" fill="#ffff9d"/>
  <g fill="#ffd42a">
   <path id="path9381" d="m-7.5712 24.721-0.075946 0.0021a6.3582 8.2966 0.14716 0 1 -6.0119 6.1983 6.3582 8.2966 0.14716 0 1 -6.2018 -5.8521l-0.24607 0.0062a6.3582 8.2966 0.14716 0 0 6.3795 6.7739 6.3582 8.2966 0.14716 0 0 6.1562 -7.1282z"/>
   <g fill-rule="evenodd">
    <path id="path9470" d="m-18.538 25.422 4.42-0.11553-2.2669 3.5232s-0.72354-0.6146-1.0267-0.97687c-0.21964-0.26244-0.40698-0.54513-0.56558-0.85684-0.162-0.31842-0.26785-0.67704-0.38697-1.0209-0.06326-0.18261-0.1739-0.55306-0.1739-0.55306z"/>
    <path id="path9474" d="m-8.9229 25.195-4.4058 0.0938 2.1779 3.5979s0.71992-0.64014 1.0252-1.065c0.23094-0.32145 0.4126-0.59692 0.58032-0.91761 0.18062-0.34534 0.32913-0.70815 0.45513-1.0769 0.070474-0.20626 0.16724-0.63215 0.16724-0.63216z"/>
    <path id="path9478" d="m-13.75 25.341-2.3807 3.6606s0.58702 0.369 0.9076 0.49574c0.27843 0.11007 0.57465 0.17336 0.86958 0.22486 0.25119 0.04385 0.50685 0.07972 0.76168 0.07078 0.3885-0.01362 0.8121-0.13093 1.1972-0.26856 0.31996-0.11434 0.91076-0.45778 0.91076-0.45778z"/>
   </g>
  </g>
  <ellipse id="path9654" rx=".78445" ry=".76235" filter="url(#filter9728)" cy="26.106" cx="-10.22" fill="#fff"/>
 </g>
 <rect id="rect7403" transform="rotate(13.514)" height="4.8333" width="4.8333" y="-1.0674" x="70.687" stroke-width="0" fill="url(#linearGradient9316)"/>
 <rect id="rect9342" transform="rotate(-38.53)" height="4.8333" width="4.8333" y="50.71" x="43.104" stroke-width="0" fill="url(#linearGradient9344)"/>
 <g id="g9741" transform="matrix(.50066 .42109 -.42109 .50066 83.658 12.456)">
  <path id="path9743" d="m-13.632 31.495a6.4908 7.9109 0.19895 0 0 6.2859 -6.7965l-12.797 0.33818a6.4908 7.9109 0.19895 0 0 6.5114 6.4583z" transform="matrix(.97009 0 0 .91431 -.47679 2.1978)" filter="url(#filter9646)" fill="#ffe62a"/>
  <path id="path9745" d="m-13.632 31.495a6.4908 7.9109 0.19895 0 0 6.2859 -6.7965l-12.797 0.33818a6.4908 7.9109 0.19895 0 0 6.5114 6.4583z" transform="matrix(.84920 0 0 .84920 -2.061 3.8616)" filter="url(#filter9646)" fill="#ffff9d"/>
  <g fill="#ffd42a">
   <path id="path9747" d="m-7.5712 24.721-0.075946 0.0021a6.3582 8.2966 0.14716 0 1 -6.0119 6.1983 6.3582 8.2966 0.14716 0 1 -6.2018 -5.8521l-0.24607 0.0062a6.3582 8.2966 0.14716 0 0 6.3795 6.7739 6.3582 8.2966 0.14716 0 0 6.1562 -7.1282z"/>
   <g fill-rule="evenodd">
    <path id="path9749" d="m-18.538 25.422 4.42-0.11553-2.2669 3.5232s-0.72354-0.6146-1.0267-0.97687c-0.21964-0.26244-0.40698-0.54513-0.56558-0.85684-0.162-0.31842-0.26785-0.67704-0.38697-1.0209-0.06326-0.18261-0.1739-0.55306-0.1739-0.55306z"/>
    <path id="path9751" d="m-8.9229 25.195-4.4058 0.0938 2.1779 3.5979s0.71992-0.64014 1.0252-1.065c0.23094-0.32145 0.4126-0.59692 0.58032-0.91761 0.18062-0.34534 0.32913-0.70815 0.45513-1.0769 0.070474-0.20626 0.16724-0.63215 0.16724-0.63216z"/>
    <path id="path9753" d="m-13.75 25.341-2.3807 3.6606s0.58702 0.369 0.9076 0.49574c0.27843 0.11007 0.57465 0.17336 0.86958 0.22486 0.25119 0.04385 0.50685 0.07972 0.76168 0.07078 0.3885-0.01362 0.8121-0.13093 1.1972-0.26856 0.31996-0.11434 0.91076-0.45778 0.91076-0.45778z"/>
   </g>
  </g>
  <ellipse id="ellipse9755" rx=".78445" ry=".76235" filter="url(#filter9728)" cy="26.106" cx="-10.22" fill="#fff"/>
 </g>
 <g>
  <g stroke-width="0">
   <rect id="rect9346" transform="matrix(.84946 -.52765 .52765 .84946 0 0)" height="4.8333" width="4.8333" y="47.173" x="43.979" fill="url(#linearGradient9348)"/>
   <rect id="rect9757" transform="rotate(23.718)" height="4.8333" width="4.8333" y="-6.822" x="67.769" fill="url(#linearGradient9759)"/>
   <rect id="rect9761" transform="rotate(226.11)" height="4.8333" width="4.8333" y="31.448" x="-68.403" fill="url(#linearGradient9763)"/>
   <rect id="rect9765" transform="rotate(253.83)" height="4.8333" width="4.8333" y="55.473" x="-46.605" fill="url(#linearGradient9767)"/>
  </g>
  <ellipse id="path9936" rx="8.875" ry=".59375" filter="url(#filter9958)" cy="22.272" cx="22.438" fill="#fff"/>
 </g>
</svg>
