<?xml version="1.0" encoding="UTF-8" standalone="no"?>
<!-- Created with Inkscape (http://www.inkscape.org/) -->
<svg id="svg3443" xmlns:rdf="http://www.w3.org/1999/02/22-rdf-syntax-ns#" xmlns="http://www.w3.org/2000/svg" height="41.333" viewBox="0 0 40.341717 41.333351" width="40.342" version="1.1" xmlns:cc="http://creativecommons.org/ns#" xmlns:dc="http://purl.org/dc/elements/1.1/">
 <metadata id="metadata3449">
  <rdf:RDF>
   <cc:Work rdf:about="">
    <dc:format>image/svg+xml</dc:format>
    <dc:type rdf:resource="http://purl.org/dc/dcmitype/StillImage"/>
    <dc:title/>
   </cc:Work>
  </rdf:RDF>
 </metadata>
 <defs id="defs3447">
  <filter id="filter6836" style="color-interpolation-filters:sRGB" height="1.1332" width="1.2295" y="-.066611" x="-.11474">
   <feGaussianBlur id="feGaussianBlur6838" stdDeviation="4.7040647"/>
  </filter>
 </defs>
 <path id="path6255" d="m6.8801 0.42528a21.702 12.946 66.573 0 0 -2.3067 1.1735 21.702 12.946 66.573 0 0 -0.4214 26.84 21.702 12.946 66.573 0 0 11.065 11.533 12.946 21.702 23.744 0 0 2.821 1.1635 12.946 21.702 23.744 0 0 4.3473 -0.26585 21.702 12.946 66.573 0 0 0.32206 -0.09104 12.946 21.702 23.744 0 0 15.302 -17.579 12.946 21.702 23.744 0 0 -5.892 -22.844 12.946 21.702 23.744 0 0 -12.121 5.1183 21.702 12.946 66.573 0 0 -13.116 -5.048z" stroke="#000" stroke-width=".12088" fill="#d40000"/>
 <g id="g6840" transform="scale(.17268)">
  <path id="path6803" d="m207.17 56.258a64.73 106.84 24.817 0 1 -3.1041 82.903 64.73 106.84 24.817 0 1 -70.015 83.751 54.332 91.078 23.744 0 0 7.0944 2.2591 54.332 91.078 23.744 0 0 18.244 -1.1168 91.078 54.332 66.573 0 0 1.3518 -0.38218 54.332 91.078 23.744 0 0 64.22 -73.78 54.332 91.078 23.744 0 0 -17.791 -93.634z" transform="matrix(1.0641 0 0 1.0913 -25.739 -36.631)" filter="url(#filter6836)" stroke-width="8.4" fill="#f55"/>
 </g>
</svg>
