<?xml version="1.0" encoding="UTF-8" standalone="no"?>
<!-- Created with Inkscape (http://www.inkscape.org/) -->
<svg id="svg3443" xmlns:rdf="http://www.w3.org/1999/02/22-rdf-syntax-ns#" xmlns="http://www.w3.org/2000/svg" height="48.66" viewBox="0 0 45.481072 48.659733" width="45.481" version="1.1" xmlns:cc="http://creativecommons.org/ns#" xmlns:dc="http://purl.org/dc/elements/1.1/">
 <metadata id="metadata3449">
  <rdf:RDF>
   <cc:Work rdf:about="">
    <dc:format>image/svg+xml</dc:format>
    <dc:type rdf:resource="http://purl.org/dc/dcmitype/StillImage"/>
    <dc:title/>
   </cc:Work>
  </rdf:RDF>
 </metadata>
 <defs id="defs3447">
  <filter id="filter6836" style="color-interpolation-filters:sRGB" height="1.1332" width="1.2295" y="-.066611" x="-.11474">
   <feGaussianBlur id="feGaussianBlur6838" stdDeviation="4.7040647"/>
  </filter>
  <filter id="filter6995" style="color-interpolation-filters:sRGB" height="1.0726" width="1.0714" y="-.036309" x="-.035696">
   <feGaussianBlur id="feGaussianBlur6997" stdDeviation="0.61880859"/>
  </filter>
  <filter id="filter7005" style="color-interpolation-filters:sRGB" height="1.2887" width="1.0262" y="-.14436" x="-.013088">
   <feGaussianBlur id="feGaussianBlur7007" stdDeviation="0.22658376"/>
  </filter>
 </defs>
 <path id="path6255" d="m92.69-57.144a21.702 12.946 66.573 0 0 -2.3067 1.1735 21.702 12.946 66.573 0 0 -0.42133 26.84 21.702 12.946 66.573 0 0 11.065 11.533 12.946 21.702 23.744 0 0 2.821 1.1635 12.946 21.702 23.744 0 0 4.3473 -0.26585 21.702 12.946 66.573 0 0 0.32206 -0.09104 12.946 21.702 23.744 0 0 15.302 -17.58 12.946 21.702 23.744 0 0 -5.8925 -22.844 12.946 21.702 23.744 0 0 -12.121 5.1184 21.702 12.946 66.573 0 0 -13.116 -5.0481z" stroke="#000" stroke-width=".12088" fill="#d40000"/>
 <g id="g6840" transform="matrix(.17268 0 0 .17268 85.81 -57.569)">
  <path id="path6803" d="m207.17 56.258a64.73 106.84 24.817 0 1 -3.1041 82.903 64.73 106.84 24.817 0 1 -70.015 83.751 54.332 91.078 23.744 0 0 7.0944 2.2591 54.332 91.078 23.744 0 0 18.244 -1.1168 91.078 54.332 66.573 0 0 1.3518 -0.38218 54.332 91.078 23.744 0 0 64.22 -73.78 54.332 91.078 23.744 0 0 -17.791 -93.634z" transform="matrix(1.0641 0 0 1.0913 -25.739 -36.631)" filter="url(#filter6836)" stroke-width="8.4" fill="#f55"/>
 </g>
 <g id="g7028" transform="translate(1.6525 .30046)">
  <rect id="rect6999" transform="matrix(1.0154 0 0 1.0325 86.387 -61.015)" height="3.7669" filter="url(#filter7005)" width="41.55" y="101.91" x="-84.529" fill="#999"/>
  <path id="path6981" d="m22.488 1.4851l-5.4182 5.6088c-1.5559 1.6106-3.1118 3.2212-4.6677 4.8319l-4.7443 4.9112c-1.7558 1.8176-5.2675 5.4528-5.2675 5.4528h4.2482 5.9764v5.5472 5.3422 4.7486 4.4597h21.156v-5.7953-7.5681-6.7343h5.3657 4.8589s-2.7339-2.6445-4.1008-3.9668c-1.633-1.581-3.267-3.161-4.9-4.741-2.212-2.14-4.424-4.2795-6.636-6.4191l-5.871-5.6788z" filter="url(#filter6995)" fill="#999"/>
  <path id="rect6946" d="m20.933 1.04l-5.4182 5.6088c-1.5559 1.6106-3.1118 3.2212-4.6677 4.8319l-4.7443 4.9112c-1.7558 1.8176-5.2675 5.4528-5.2675 5.4528h4.2482 5.9764v5.5472 5.3422 4.7486 4.4597h21.156v-5.7953-7.5681-6.7343h5.3657 4.8589s-2.7339-2.6445-4.1008-3.9668c-1.633-1.581-3.267-3.161-4.9-4.741-2.212-2.14-4.424-4.2796-6.636-6.4193l-5.871-5.6787z" stroke="#333" stroke-width="0.7" fill="#333"/>
  <rect id="rect6959" height="3.1733" width="41.253" stroke="#333" y="43.838" x=".83597" stroke-width="0.7" fill="#333"/>
 </g>
</svg>
